<svg width="48" height="48" viewBox="0 0 48 48" fill="none" xmlns="http://www.w3.org/2000/svg">
<g id="ico-action-edit">
<path id="Vector" d="M10 38H12.196L33.5925 16.604L31.396 14.4075L10 35.804V38ZM8 40V34.9615L34.3615 8.573C34.5665 8.39033 34.7927 8.24917 35.04 8.1495C35.2877 8.04983 35.5458 8 35.8145 8C36.0832 8 36.3435 8.04233 36.5955 8.127C36.8472 8.21167 37.0795 8.36417 37.2925 8.5845L39.427 10.731C39.6473 10.9437 39.798 11.177 39.879 11.431C39.9597 11.6853 40 11.9395 40 12.1935C40 12.4645 39.9543 12.7238 39.863 12.9715C39.7717 13.2188 39.6263 13.445 39.427 13.65L13.0385 40H8ZM32.475 15.525L31.396 14.4075L33.5925 16.604L32.475 15.525Z" fill="#ffffff"/>
</g>
</svg>
