<svg width="24" height="24" viewBox="0 0 24 24" fill="none" xmlns="http://www.w3.org/2000/svg">
<path d="M12 10C14.21 10 16 8.21 16 6C16 3.79 14.21 2 12 2C9.79 2 8 3.79 8 6C8 8.21 9.79 10 12 10ZM12 3C13.65 3 15 4.35 15 6C15 7.65 13.65 9 12 9C10.35 9 9 7.65 9 6C9 4.35 10.35 3 12 3Z" fill="#000000"/>
<path d="M6 19V15C6 13.9 6.9 13 8 13H15.68C15.84 12.76 16.02 12.54 16.23 12.33C16.33 12.23 16.45 12.15 16.56 12.06C16.38 12.02 16.19 12 16 12H8C6.35 12 5 13.35 5 15V20H11.16C11.28 19.64 11.46 19.3 11.71 19H6Z" fill="#000000"/>
<path d="M18.56 17.92C18.7 17.97 18.84 18.02 18.99 18.04C19.14 18.07 19.29 18.08 19.45 18.08C20.16 18.08 20.76 17.83 21.25 17.34C21.74 16.85 21.99 16.24 21.99 15.54C21.99 15.29 21.95 15.04 21.88 14.81C21.83 14.65 21.73 14.46 21.65 14.31L20.06 15.9C19.82 16.14 19.46 16.21 19.16 16.05C18.71 15.8 18.79 15.19 19.12 14.87L20.66 13.33C20.51 13.25 20.32 13.15 20.16 13.1C19.93 13.03 19.69 12.99 19.43 12.99C18.72 12.99 18.12 13.24 17.63 13.73C17.14 14.22 16.89 14.83 16.89 15.53C16.89 15.69 16.9 15.85 16.93 15.99C16.96 16.13 17 16.28 17.06 16.42L13.29 20.18C12.88 20.59 12.88 21.25 13.29 21.66L13.32 21.69C13.73 22.1 14.39 22.1 14.8 21.69L18.55 17.92H18.56Z" fill="#000000"/>
</svg>
