<svg width="48" height="48" viewBox="0 0 48 48" fill="none" xmlns="http://www.w3.org/2000/svg">
<g id="icon-role_operator">
<g id="Union">
<path fill-rule="evenodd" clip-rule="evenodd" d="M16 14C16 9.58 19.58 6 24 6C28.42 6 32 9.58 32 14C32 18.42 28.42 22 24 22C19.58 22 16 18.42 16 14ZM30.02 14C30.02 10.68 27.32 7.98 24 7.98C20.68 7.98 17.98 10.68 17.98 14C17.98 17.32 20.68 20.02 24 20.02C27.32 20.02 30.02 17.32 30.02 14Z" fill="#FFFFFF"/>
<path fill-rule="evenodd" clip-rule="evenodd" d="M15 26H33C35.76 26 38 28.24 38 31V42H10V31C10 28.24 12.24 26 15 26ZM36.02 31C36.02 29.34 34.66 27.98 33 27.98H15C13.34 27.98 11.98 29.34 11.98 31V40.02H36.02V31Z" fill="#FFFFFF"/>
</g>
</g>
</svg>
