<svg width="280" height="230" viewBox="0 0 280 230" fill="none" xmlns="http://www.w3.org/2000/svg">
<path d="M43.9219 193.477C45.3021 193.477 46.3177 194.049 46.9688 195.195C47.4844 196.107 47.7422 197.451 47.7422 199.227C47.7422 201.456 47.388 203.01 46.6797 203.891C45.987 204.75 45.0703 205.18 43.9297 205.18C42.5599 205.18 41.5495 204.607 40.8984 203.461C40.3828 202.555 40.125 201.182 40.125 199.344C40.125 197.266 40.4479 195.781 41.0938 194.891C41.776 193.948 42.7188 193.477 43.9219 193.477ZM43.9297 195.008C43.2474 195.008 42.75 195.352 42.4375 196.039C42.125 196.727 41.9688 197.826 41.9688 199.336C41.9688 200.94 42.1458 202.078 42.5 202.75C42.8125 203.339 43.2891 203.633 43.9297 203.633C44.6224 203.633 45.1224 203.294 45.4297 202.617C45.7422 201.935 45.8984 200.841 45.8984 199.336C45.8984 197.654 45.7161 196.495 45.3516 195.859C45.0234 195.292 44.5495 195.008 43.9297 195.008Z" fill="black"/>
<path d="M228.406 205H226.578V197.047H223.961V195.797C225.029 195.714 225.776 195.531 226.203 195.25C226.635 194.964 226.966 194.432 227.195 193.656H228.406V205ZM235.922 193.477C237.302 193.477 238.318 194.049 238.969 195.195C239.484 196.107 239.742 197.451 239.742 199.227C239.742 201.456 239.388 203.01 238.68 203.891C237.987 204.75 237.07 205.18 235.93 205.18C234.56 205.18 233.549 204.607 232.898 203.461C232.383 202.555 232.125 201.182 232.125 199.344C232.125 197.266 232.448 195.781 233.094 194.891C233.776 193.948 234.719 193.477 235.922 193.477ZM235.93 195.008C235.247 195.008 234.75 195.352 234.438 196.039C234.125 196.727 233.969 197.826 233.969 199.336C233.969 200.94 234.146 202.078 234.5 202.75C234.812 203.339 235.289 203.633 235.93 203.633C236.622 203.633 237.122 203.294 237.43 202.617C237.742 201.935 237.898 200.841 237.898 199.336C237.898 197.654 237.716 196.495 237.352 195.859C237.023 195.292 236.549 195.008 235.93 195.008ZM244.828 193.477C246.208 193.477 247.224 194.049 247.875 195.195C248.391 196.107 248.648 197.451 248.648 199.227C248.648 201.456 248.294 203.01 247.586 203.891C246.893 204.75 245.977 205.18 244.836 205.18C243.466 205.18 242.456 204.607 241.805 203.461C241.289 202.555 241.031 201.182 241.031 199.344C241.031 197.266 241.354 195.781 242 194.891C242.682 193.948 243.625 193.477 244.828 193.477ZM244.836 195.008C244.154 195.008 243.656 195.352 243.344 196.039C243.031 196.727 242.875 197.826 242.875 199.336C242.875 200.94 243.052 202.078 243.406 202.75C243.719 203.339 244.195 203.633 244.836 203.633C245.529 203.633 246.029 203.294 246.336 202.617C246.648 201.935 246.805 200.841 246.805 199.336C246.805 197.654 246.622 196.495 246.258 195.859C245.93 195.292 245.456 195.008 244.836 195.008Z" fill="black"/>
<path d="M7.60156 85.7266V84.3828C7.64844 84.3828 7.70833 84.3828 7.78125 84.3828C9.3125 84.3828 10.0781 83.8125 10.0781 82.6719C10.0781 82.151 9.92708 81.7448 9.625 81.4531C9.32292 81.1562 8.90365 81.0078 8.36719 81.0078C7.60156 81.0078 7.08333 81.2552 6.8125 81.75C6.63021 82.0781 6.53385 82.5443 6.52344 83.1484H4.78125C4.79167 82.0182 5.04688 81.1719 5.54688 80.6094C6.20833 79.8542 7.15365 79.4766 8.38281 79.4766C9.54427 79.4766 10.4453 79.7891 11.0859 80.4141C11.6432 80.9557 11.9219 81.6641 11.9219 82.5391C11.9219 83.6016 11.4089 84.388 10.3828 84.8984C11.6484 85.3932 12.2812 86.2969 12.2812 87.6094C12.2812 88.7552 11.8828 89.6589 11.0859 90.3203C10.3932 90.8932 9.50781 91.1797 8.42969 91.1797C6.0026 91.1797 4.72135 89.9531 4.58594 87.5H6.38281C6.45052 88.8958 7.125 89.5938 8.40625 89.5938C9.02083 89.5938 9.51302 89.4167 9.88281 89.0625C10.2526 88.7031 10.4375 88.2266 10.4375 87.6328C10.4375 87.0547 10.25 86.5938 9.875 86.25C9.5 85.901 8.9974 85.7266 8.36719 85.7266H7.60156ZM17.375 79.4766C18.7552 79.4766 19.7708 80.0495 20.4219 81.1953C20.9375 82.1068 21.1953 83.4505 21.1953 85.2266C21.1953 87.4557 20.8411 89.0104 20.1328 89.8906C19.4401 90.75 18.5234 91.1797 17.3828 91.1797C16.013 91.1797 15.0026 90.6068 14.3516 89.4609C13.8359 88.5547 13.5781 87.1823 13.5781 85.3438C13.5781 83.2656 13.901 81.7812 14.5469 80.8906C15.2292 79.9479 16.1719 79.4766 17.375 79.4766ZM17.3828 81.0078C16.7005 81.0078 16.2031 81.3516 15.8906 82.0391C15.5781 82.7266 15.4219 83.8255 15.4219 85.3359C15.4219 86.9401 15.599 88.0781 15.9531 88.75C16.2656 89.3385 16.7422 89.6328 17.3828 89.6328C18.0755 89.6328 18.5755 89.2943 18.8828 88.6172C19.1953 87.9349 19.3516 86.8411 19.3516 85.3359C19.3516 83.6536 19.1693 82.4948 18.8047 81.8594C18.4766 81.2917 18.0026 81.0078 17.3828 81.0078Z" fill="black"/>
<path d="M266.477 79.6562V81.125C265.018 83.0208 263.964 84.7708 263.312 86.375C262.76 87.7188 262.372 89.2604 262.148 91H260.266L260.281 90.8516C260.568 89.1745 260.995 87.6823 261.562 86.375C262.255 84.7812 263.26 83.1068 264.578 81.3516H258.695V79.6562H266.477ZM271.375 79.4766C272.755 79.4766 273.771 80.0495 274.422 81.1953C274.938 82.1068 275.195 83.4505 275.195 85.2266C275.195 87.4557 274.841 89.0104 274.133 89.8906C273.44 90.75 272.523 91.1797 271.383 91.1797C270.013 91.1797 269.003 90.6068 268.352 89.4609C267.836 88.5547 267.578 87.1823 267.578 85.3438C267.578 83.2656 267.901 81.7812 268.547 80.8906C269.229 79.9479 270.172 79.4766 271.375 79.4766ZM271.383 81.0078C270.701 81.0078 270.203 81.3516 269.891 82.0391C269.578 82.7266 269.422 83.8255 269.422 85.3359C269.422 86.9401 269.599 88.0781 269.953 88.75C270.266 89.3385 270.742 89.6328 271.383 89.6328C272.076 89.6328 272.576 89.2943 272.883 88.6172C273.195 87.9349 273.352 86.8411 273.352 85.3359C273.352 83.6536 273.169 82.4948 272.805 81.8594C272.477 81.2917 272.003 81.0078 271.383 81.0078Z" fill="black"/>
<path d="M43.4375 32.3828H42.0078V35H40.1875V32.3828H35.5156V30.6875L40.1719 23.6562H42.0078V30.8203H43.4375V32.3828ZM40.1875 30.8203V25.9141L36.9297 30.8203H40.1875ZM48.375 23.4766C49.7552 23.4766 50.7708 24.0495 51.4219 25.1953C51.9375 26.1068 52.1953 27.4505 52.1953 29.2266C52.1953 31.4557 51.8411 33.0104 51.1328 33.8906C50.4401 34.75 49.5234 35.1797 48.3828 35.1797C47.013 35.1797 46.0026 34.6068 45.3516 33.4609C44.8359 32.5547 44.5781 31.1823 44.5781 29.3438C44.5781 27.2656 44.901 25.7812 45.5469 24.8906C46.2292 23.9479 47.1719 23.4766 48.375 23.4766ZM48.3828 25.0078C47.7005 25.0078 47.2031 25.3516 46.8906 26.0391C46.5781 26.7266 46.4219 27.8255 46.4219 29.3359C46.4219 30.9401 46.599 32.0781 46.9531 32.75C47.2656 33.3385 47.7422 33.6328 48.3828 33.6328C49.0755 33.6328 49.5755 33.2943 49.8828 32.6172C50.1953 31.9349 50.3516 30.8411 50.3516 29.3359C50.3516 27.6536 50.1693 26.4948 49.8047 25.8594C49.4766 25.2917 49.0026 25.0078 48.3828 25.0078Z" fill="black"/>
<path d="M235.141 26.3594H233.398C233.138 25.4583 232.583 25.0078 231.734 25.0078C230.839 25.0078 230.206 25.5156 229.836 26.5312C229.664 27.0052 229.565 27.737 229.539 28.7266C230.216 27.987 231.018 27.6172 231.945 27.6172C233.023 27.6172 233.88 27.9974 234.516 28.7578C235.073 29.4245 235.352 30.2552 235.352 31.25C235.352 32.4792 234.953 33.4661 234.156 34.2109C233.469 34.8568 232.615 35.1797 231.594 35.1797C230.161 35.1797 229.117 34.6042 228.461 33.4531C227.951 32.5469 227.695 31.2734 227.695 29.6328C227.695 27.6693 228.023 26.1797 228.68 25.1641C229.409 24.0391 230.456 23.4766 231.82 23.4766C232.737 23.4766 233.482 23.7266 234.055 24.2266C234.628 24.7214 234.99 25.4323 235.141 26.3594ZM231.602 29.125C230.997 29.125 230.505 29.3307 230.125 29.7422C229.75 30.1536 229.562 30.6875 229.562 31.3438C229.562 32 229.753 32.5417 230.133 32.9688C230.513 33.3906 230.992 33.6016 231.57 33.6016C232.148 33.6016 232.625 33.3906 233 32.9688C233.375 32.5417 233.562 31.9974 233.562 31.3359C233.562 30.6641 233.385 30.1276 233.031 29.7266C232.677 29.3255 232.201 29.125 231.602 29.125ZM240.375 23.4766C241.755 23.4766 242.771 24.0495 243.422 25.1953C243.938 26.1068 244.195 27.4505 244.195 29.2266C244.195 31.4557 243.841 33.0104 243.133 33.8906C242.44 34.75 241.523 35.1797 240.383 35.1797C239.013 35.1797 238.003 34.6068 237.352 33.4609C236.836 32.5547 236.578 31.1823 236.578 29.3438C236.578 27.2656 236.901 25.7812 237.547 24.8906C238.229 23.9479 239.172 23.4766 240.375 23.4766ZM240.383 25.0078C239.701 25.0078 239.203 25.3516 238.891 26.0391C238.578 26.7266 238.422 27.8255 238.422 29.3359C238.422 30.9401 238.599 32.0781 238.953 32.75C239.266 33.3385 239.742 33.6328 240.383 33.6328C241.076 33.6328 241.576 33.2943 241.883 32.6172C242.195 31.9349 242.352 30.8411 242.352 29.3359C242.352 27.6536 242.169 26.4948 241.805 25.8594C241.477 25.2917 241.003 25.0078 240.383 25.0078Z" fill="black"/>
<path d="M63.6325 191.368C50.2272 177.962 40.5867 161.264 35.68 142.952C30.7733 124.64 30.7733 105.36 35.68 87.0475L46.112 89.8428C41.696 106.324 41.696 123.676 46.112 140.157C50.528 156.638 59.2045 171.666 71.2692 183.731L63.6325 191.368Z" fill="#E1E1E1"/>
<path d="M35.68 87.0475C40.5867 68.7356 50.2272 52.0378 63.6325 38.6325L71.2692 46.2692C59.2045 58.334 50.528 73.362 46.112 89.8428L35.68 87.0475Z" fill="#F3F3F3"/>
<path d="M216.368 38.6325C229.773 52.0378 239.413 68.7355 244.32 87.0475L233.888 89.8428C229.472 73.362 220.796 58.334 208.731 46.2692L216.368 38.6325Z" fill="#F3F3F3"/>
<path d="M244.322 87.0541C249.227 105.366 249.226 124.647 244.318 142.959C239.41 161.271 229.769 177.968 216.363 191.372L208.726 183.735C220.792 171.671 229.469 156.644 233.886 140.163C238.303 123.683 238.305 106.33 233.89 89.8487L244.322 87.0541Z" fill="#E1E1E1"/>
<path d="M63.6325 38.6325C83.8864 18.3785 111.357 7 140 7C168.643 7 196.114 18.3785 216.368 38.6325L208.731 46.2692C190.502 28.0407 165.779 17.8 140 17.8C114.221 17.8 89.4978 28.0407 71.2692 46.2692L63.6325 38.6325Z" fill="#66D8B4"/>
<path d="M63.6325 191.368C50.2272 177.962 40.5867 161.264 35.68 142.952C30.7733 124.64 30.7733 105.36 35.68 87.0475L46.112 89.8428C41.696 106.324 41.696 123.676 46.112 140.157C50.528 156.638 59.2045 171.666 71.2692 183.731L63.6325 191.368Z" stroke="black" stroke-width="2"/>
<path d="M35.68 87.0475C40.5867 68.7356 50.2272 52.0378 63.6325 38.6325L71.2692 46.2692C59.2045 58.334 50.528 73.362 46.112 89.8428L35.68 87.0475Z" stroke="black" stroke-width="2"/>
<path d="M216.368 38.6325C229.773 52.0378 239.413 68.7355 244.32 87.0475L233.888 89.8428C229.472 73.362 220.796 58.334 208.731 46.2692L216.368 38.6325Z" stroke="black" stroke-width="2"/>
<path d="M244.322 87.0541C249.227 105.366 249.226 124.647 244.318 142.959C239.41 161.271 229.769 177.968 216.363 191.372L208.726 183.735C220.792 171.671 229.469 156.644 233.886 140.163C238.303 123.683 238.305 106.33 233.89 89.8487L244.322 87.0541Z" stroke="black" stroke-width="2"/>
<path d="M63.6325 38.6325C83.8864 18.3785 111.357 7 140 7C168.643 7 196.114 18.3785 216.368 38.6325L208.731 46.2692C190.502 28.0407 165.779 17.8 140 17.8C114.221 17.8 89.4978 28.0407 71.2692 46.2692L63.6325 38.6325Z" stroke="black" stroke-width="2"/>
<path d="M71.4106 183.589C57.8449 170.024 48.6066 152.74 44.8638 133.924C41.1211 115.108 43.042 95.6041 50.3837 77.8797C57.7254 60.1553 70.1581 45.0059 86.1097 34.3474C102.061 23.689 120.815 18 140 18V37.4C124.652 37.4 109.649 41.9512 96.8878 50.478C84.1265 59.0048 74.1803 71.1242 68.3069 85.3038C62.4336 99.4833 60.8969 115.086 63.8911 130.139C66.8853 145.192 74.276 159.019 85.1285 169.871L71.4106 183.589Z" fill="black" stroke="black" stroke-width="2"/>
<path d="M140 18C138.984 18 137.968 18.016 136.953 18.0479L138.02 51.9811C138.679 51.9604 139.34 51.95 140 51.95V18Z" fill="black" stroke="black" stroke-width="2"/>
<path d="M133.273 164.279C134.165 164.279 134.914 164.611 135.52 165.275C136.04 165.855 136.301 166.532 136.301 167.307C136.301 168.205 135.969 168.954 135.305 169.553C134.725 170.074 134.048 170.334 133.273 170.334C132.375 170.334 131.623 170.002 131.018 169.338C130.497 168.758 130.236 168.081 130.236 167.307C130.236 166.415 130.572 165.666 131.242 165.061C131.822 164.54 132.499 164.279 133.273 164.279ZM133.264 165.49C132.762 165.49 132.333 165.669 131.975 166.027C131.623 166.379 131.447 166.805 131.447 167.307C131.447 167.814 131.623 168.247 131.975 168.605C132.333 168.957 132.762 169.133 133.264 169.133C133.771 169.133 134.201 168.957 134.553 168.605C134.911 168.247 135.09 167.814 135.09 167.307C135.09 166.805 134.911 166.379 134.553 166.027C134.201 165.669 133.771 165.49 133.264 165.49ZM152.775 168.078H150.393C150.243 167.375 150.012 166.828 149.699 166.438C149.094 165.676 148.173 165.295 146.936 165.295C145.373 165.295 144.23 165.93 143.508 167.199C142.961 168.163 142.688 169.354 142.688 170.773C142.688 172.577 143.111 173.954 143.957 174.904C144.699 175.731 145.689 176.145 146.926 176.145C148.215 176.145 149.162 175.721 149.768 174.875C150.152 174.328 150.409 173.605 150.539 172.707H152.951C152.782 174.608 152.102 176.034 150.91 176.984C149.868 177.811 148.495 178.225 146.789 178.225C144.654 178.225 142.993 177.456 141.809 175.92C140.773 174.585 140.256 172.854 140.256 170.725C140.256 168.628 140.767 166.903 141.789 165.549C142.98 163.98 144.702 163.195 146.955 163.195C148.726 163.195 150.129 163.68 151.164 164.65C152.062 165.497 152.6 166.639 152.775 168.078Z" fill="black"/>
<rect x="104" y="148" width="72" height="2" fill="black"/>
<path d="M135.656 85.625V93.625H116.875L115.5 102.812C117.938 101.021 120.562 100.125 123.375 100.125C125.542 100.125 127.562 100.552 129.438 101.406C131.958 102.573 133.927 104.396 135.344 106.875C136.781 109.354 137.5 112.198 137.5 115.406C137.5 119.365 136.448 122.771 134.344 125.625C131.323 129.688 126.927 131.719 121.156 131.719C116.719 131.719 113.104 130.521 110.312 128.125C107.542 125.708 106.135 122.562 106.094 118.688H114.906C115.073 122.25 117.156 124.031 121.156 124.031C122.26 124.031 123.312 123.823 124.312 123.406C127.125 122.198 128.531 119.604 128.531 115.625C128.531 113.042 127.875 110.99 126.562 109.469C125.25 107.948 123.469 107.188 121.219 107.188C120.427 107.188 119.677 107.292 118.969 107.5C117.344 107.979 116.188 108.99 115.5 110.531H107.438L111.406 85.625H135.656ZM157.656 84.9062C159.698 84.9062 161.594 85.2708 163.344 86C166.802 87.4167 169.281 89.875 170.781 93.375C172.302 96.8542 173.062 101.833 173.062 108.312C173.062 116.75 171.781 122.667 169.219 126.062C166.365 129.833 162.448 131.719 157.469 131.719C151.969 131.719 147.833 129.531 145.062 125.156C142.917 121.781 141.844 116.156 141.844 108.281C141.844 105.74 141.969 103.302 142.219 100.969C142.781 95.5729 144.427 91.5521 147.156 88.9062C149.885 86.2396 153.385 84.9062 157.656 84.9062ZM157.344 92.1562C154.969 92.1562 153.281 93.375 152.281 95.8125C151.302 98.2292 150.812 102.375 150.812 108.25C150.812 109.604 150.865 111.229 150.969 113.125C151.198 117.354 151.854 120.24 152.938 121.781C153.979 123.281 155.479 124.031 157.438 124.031C159.917 124.031 161.646 122.865 162.625 120.531C163.604 118.198 164.094 114.094 164.094 108.219C164.094 101.927 163.625 97.7708 162.688 95.75C161.583 93.3542 159.802 92.1562 157.344 92.1562Z" fill="black"/>
</svg>
